<svg xmlns="http://www.w3.org/2000/svg" width="117" height="16" fill="none"><path fill="#EF9546" d="M16.539 6.097a.297.297 0 0 0-.24-.202l-5.36-.779L8.542.26a.296.296 0 0 0-.53 0L5.613 5.117l-5.36.779a.297.297 0 0 0-.165.505l3.88 3.78-.917 5.34a.297.297 0 0 0 .43.312l4.795-2.52 4.794 2.52a.296.296 0 0 0 .43-.313l-.916-5.338L16.464 6.4c.08-.08.11-.197.075-.304ZM41.538 6.097a.297.297 0 0 0-.239-.202l-5.36-.779L33.542.26a.296.296 0 0 0-.53 0l-2.398 4.857-5.36.779a.297.297 0 0 0-.165.505l3.88 3.78-.917 5.34a.297.297 0 0 0 .43.312l4.795-2.52 4.794 2.52a.297.297 0 0 0 .43-.313l-.916-5.338L41.464 6.4c.08-.08.11-.197.075-.304ZM66.538 6.097a.297.297 0 0 0-.239-.202l-5.36-.779L58.542.26a.296.296 0 0 0-.53 0l-2.398 4.857-5.36.779a.297.297 0 0 0-.165.505l3.88 3.78-.917 5.34a.297.297 0 0 0 .43.312l4.795-2.52 4.794 2.52a.297.297 0 0 0 .43-.313l-.916-5.338L66.464 6.4c.08-.08.11-.197.075-.304ZM91.538 6.097a.297.297 0 0 0-.239-.202l-5.36-.779L83.542.26a.296.296 0 0 0-.53 0l-2.398 4.857-5.36.779a.297.297 0 0 0-.165.505l3.88 3.78-.917 5.34a.297.297 0 0 0 .43.312l4.795-2.52 4.794 2.52a.297.297 0 0 0 .43-.313l-.916-5.338L91.464 6.4c.08-.08.11-.197.075-.304ZM116.539 6.097a.297.297 0 0 0-.24-.202l-5.36-.779L108.542.26a.296.296 0 0 0-.531 0l-2.397 4.857-5.36.779a.296.296 0 0 0-.165.505l3.879 3.78-.916 5.34a.297.297 0 0 0 .43.312l4.795-2.52 4.794 2.52a.296.296 0 0 0 .43-.313l-.916-5.338 3.879-3.781c.08-.08.11-.197.075-.304Z"/></svg>